<?xml version="1.0" encoding="UTF-8"?>
<svg id="Layer_1" data-name="Layer 1" xmlns="http://www.w3.org/2000/svg" viewBox="0 0 389.36 157.9">
  <defs>
    <style>
      .cls-1 {
        fill: #516232;
      }

      .cls-2 {
        fill: #586e46;
      }

      .cls-3 {
        fill: #44522a;
      }

      .cls-4 {
        fill: #617c44;
      }

      .cls-5 {
        fill: #b4d187;
      }

      .cls-6 {
        fill: #84a061;
      }
    </style>
  </defs>
  <g id="Generative_Object" data-name="Generative Object">
    <path class="cls-6" d="M65.55,134.51c-.86.21-3.7,2.71-4.2.37l-1.83,1.83c-1.37.73-3.45-.01-3.65,0-.71.05-.55,3.07-2.19-1.46v2.92l-.73-1.83c-.81,4.92-.82-.44-1.83.37l-.37,2.92-1.1-1.46c.07,2.67-6.04,3.66-8.22,3.65-3.09-4.48-.98-5,.73-8.22.05-.1.04-1.73.37-2.19,1.2-1.67,2.8-1.4,3.11-1.64.68-.55,1.11-2.62,2.56-2.92,1.72-.36,2.68.98,3.29,1.1.7.14,2.28-2.49,2.56,1.46,4.06-3.48,9.94.55,11.51,5.12Z"/>
    <g>
      <path class="cls-6" d="M25.72,148.76c-.17.17-3.01.58-2.01,2.92,1.07-2.99,1.4.46,1.83.37-.34-3.71.8-.19,1.1-.37.54-.32-.46-3.04,1.83.37.26-3.33.87-1.02,2.56,0l.73-1.83c2.26,3.11,1.72-.2,3.29,1.83.44-1.9.63-1.06,1.46,0l.37-2.92,1.1,2.92c.53-4.25.14-.68,2.38-.55l-.18-2.01c1.42,3.1,4.01,4.17,2.01-.18l2.01,2.38.37-2.56.73,2.92.37-3.29,1.1,3.65c.37-6.25,1.47,3.31,2.19-2.56l1.46,2.56v-2.92l1.46,2.19v-1.83c.73.8,2.58,2.21,3.65,2.19,1.35-.03-1.05-1.86,2.01-.18l-.18-2.38,1.46,2.92.37-1.46c.86.64,1.13,1.29,2.38.91l-.91-2.01,2.92,2.19c1.39-.05-1.18-4.46,1.83,0l.37-1.83,1.1,1.83.37-2.56c.41,2.37,1.8,4.19,1.83.73,1.83,3.34,2.85,1.94,2.19-1.1l1.83,2.92.37-2.56,1.46,2.19v-3.29l2.19,4.02v-3.29c.56-.04,2.26,5.61,2.56,1.1l2.38,1.64-1.28-2.38c.95,1.97,2.06,1.02,2.19,1.1.22.12.59,1.49.73,1.46.25-.05.31-2.97,1.46,0v-2.92l2.19,2.92.37-2.56,1.46,2.56-.37-3.65c1.27,1.61,1.55,2.88,1.83,0l1.83,3.65v-2.92l2.56,3.29c.94-1.81,2.37-1.34,2.19-2.92,3.28,4.88,1.15.91,1.83.73.11-.03,1.18,1.26,1.83,1.46.69.21.52-.79.73-.73.24.06.02.94,1.1,1.1.11.02-.26-2,1.1.37l-.37-3.29c.99,1.39,1.23,4.6,2.56,1.46.33,2.34,1.14,2.34,1.46,0l1.28,1.28.18-2.74.73,2.92.73-1.83c2.02,4.04.13-1.42,2.92,1.83l-.37-2.92,2.19,2.92v-2.19c4.86,6.13-.81-5.16,4.02,2.19l-.37-3.29,2.19,2.92v-2.92l1.46,3.29v-2.19c1.64,1.78,3.33,3.31,4.02.37,1.93.85,4.39,3.03,4.02-.37,1.24,2.69,1.38.31,2.56,2.19l-.37-3.29,2.19,3.29c.54-3.11.37.08,2.01-.18l-.55-2.38,1.46,2.56.37-2.56.73,2.56-.18-1.64,1.64,1.64v-1.83c2.73,4.67,1.96-1.41,3.65,2.56.1-4.34,2.42,2.82,1.46-2.92,2.27,3.59,2.32,1.09,2.56,1.1.51.02,1.5,2.73,1.83-.37l1.83,1.46-1.1-2.92,2.19,2.56.73-1.83,1.46,2.19-.18-2.01c5.15,5.32.77-3.89,4.2,1.64l.37-1.83c.58-.35,1.41,5.48,1.83-.73l1.1,2.92h.73c.39-2.72.61-.65,1.83.37v-1.46l1.64.91c-1.36-4.11,2.46,3.34,1.28-1.64l1.46,1.83c1.83.47-.26-2.95,2.56,0v-2.56l1.46,2.56c.28-5.17,1.81,2.23,2.92-2.19l.73,2.19-.37-3.29,1.83,3.29c.88-.38-.42-1.91,1.28-.55l-.18-2.38,1.83,2.92-.73-3.29,1.83,3.65.37-2.56,1.46,2.56c1.57-.09,0-1.76.73-2.19.12-.07,1.31,2.03,1.83,2.19,2.07-2.68,1.3,1.19,3.29-2.19l-.37,2.19c1.71-.97,1.79-.64,2.56-2.56l.73,2.19,1.83-3.65-.91,3.47c.57.14.86-1.73,1.28-1.64.6.13-.54,1.54.37,1.83l2.19-2.92-.73,3.29,2.19-3.29-.37,2.92c.78.44,2.2-4.01,1.83,0,5.34-6.4-.2,3.68,4.02-1.83l.37,2.19,1.46-3.65v3.29c2.56-4.1,1.42,2.81,4.39-1.83.54,3.05.93-.11,1.46,0l.37,1.83.73-2.56.73,2.56,1.83-3.29v2.92l1.64-2.38c-.78,3.25.18,1.87.91-.18.08,5.94.9-1.92,2.19,2.56l2.19-2.19-.73,2.19,1.83-1.83c.03,3.76.42,1.37,1.46,1.1.55-.14.99.77,1.1.73.61-.21.8-3.75,1.46,0,2.12-3.24.1.16,1.83.37l1.46-2.19c-1.37,1.39,2.37,2.68,2.56,2.56,1.08-.7,1.15-3.16,2.19-4.02l-.73,3.65c.83.3,2.2-5.5,1.83,0l2.38-2.38-.55,2.38,2.19-3.29-.73,3.29,1.46-1.83.37,1.46.55-1.28.55,1.28.37-2.19.37,2.56c1.95-1.06,3.45.73,4.75-2.92l-.37,3.29c1.63-1.54,1.31-4.41,1.83-.37l2.92-1.83-1.28,1.64c2.43.33,2.11-3.65,2.74.18l1.46-2.56.37,2.56c1.74-4.35,1.73-.36,2.56-.73l1.1-2.56v3.29l1.46-2.92.37,2.92,1.83-3.29-.37,3.29,1.83-2.19v1.83l3.29-2.19-.73,2.56,2.56-2.19v2.19l2.56-2.56-.73,2.56,1.83-2.56v2.92c1.91-1.28,2.52-1.17,3.29-3.65v3.29l.73-2.19.73,1.83,2.19-2.92-.73,3.29,2.19-3.65-.73,3.65c1.37-.12,1.37-2.63,1.83-.37l1.1-1.83v2.19c2.78-3.59,1.5-.23,2.56-.37l1.46-2.92-.37,2.92,1.46-1.46.73,1.83,2.19-1.83c-.29,5.03,2.24-4.45,1.46,1.83l.91-.91.55.91.73-1.46.73,1.46c3.04-3.11,1.46,2.49,4.02-2.56v2.56l1.1-2.56c.09.47-.55,1.44,0,1.83.26.18.57-1.63,1.28-.91-.85,3.71,1.23-.48,1.64-2.01v3.65l1.46-3.29v2.92l.73-1.1,1.1,1.1,2.19-2.56-1.28,2.38,2.01-1.64c.43.11-1.39,3.98,1.46.73v1.46l1.1-1.83.73,1.46c1.72-5.82-.3,5.07,3.29-2.56l-.37,2.92c.93.33,1.19-3.91,1.83,0,.7-1.65.92-1.99,1.46,0,.49.2,1.24-3.02,1.46,0l1.83-2.56-.37,2.56,2.19-2.92-.37,2.92,1.83-1.46c.73,4.03,1.69-1.59,2.19-1.46-.34,2.71.24,1.26,1.1,2.92,1.15-3.04,1,.04,1.83-.37.87-.43.98-2.95,1.46,0l1.1-2.56,1.46,3.29c1.32-.96,1.56-2.7,2.19-.73l1.46-2.19-.37,2.56,1.46-2.56.37,2.56c.48-3.62,1.31.34,2.19-.37l.73-2.19.73,2.56,1.46-3.29-.55,2.74c1.62.74,1.63-1.27,2.38-2.01.03,4.64.89,1.49,2.56-.37l-.37,2.92c1.88-.72,2.33-3.49,2.56-.73.28.13,1.55-4.26,1.1.73,2.17-4.42.51.04,1.83,0l.73-1.1c.86,2.34,1.06.16,1.83,0,.57-.12-.11,3.44,2.56-1.1l-.37,2.19c1.11.49,1.38-4.52,1.83-.37l1.1-1.46c1.07,2.73.9-1.43,1.83,1.1l1.1-1.83.18,2.38c.77.73.68-.7,1.1-.55.33.13.44.32.73.37.1.01.08,1.83.73-.37.52.22.39,1.08,1.64.73.4-.19.75-1.36.91-1.83l.91,2.19.73-2.56.37,2.56c1.51.05,1.85.8,2.19-1.1l.73,1.83,1.1-1.83,1.1,1.83.73-4.75.55,4.93,2.01-2.01.73,2.19,2.56-4.39c-2.83,7.74-.3,3.12,0,3.29.62.34-.56,3.24,1.83-.37l.18,3.29c-128.84-.22-257.79.73-386.63-.37.47-.83.74.02.18-2.19l2.74,1.28-.91-3.47c2.64,4.27,2.69.76,2.92.73.13-.02.4,2.34,1.46,2.19l.37-5.12,1.1,5.12.73-1.83,1.64,1.64-.55-2.38c4.72,3.99,1.64.13,4.39-2.56-1.27,6.77,1.17,1.5,1.46,1.46.9-.12.72,2.28,2.01,1.64l-.91-2.74,1.83,2.92c1.64-.74-.43-1.91-.55-2.74.4-.1,1.13.64,1.46.91.23.19,1.32,2.07,1.64,1.83.67-.62-.15-1.63-.18-1.83-.31-1.64-.85-2.54-1.83-3.84l3.47,3.11c.54-.45-.57-4.1.37-3.65.5.24-.36,2.3.91,1.64l.18-3.84.55,5.48Z"/>
      <path class="cls-2" d="M387.86,155.34c1.3-.13,2.12,1.98.91,2.56H.69c-1.67-1.65.19-2.3.55-2.92,128.84,1.1,257.78.15,386.63.37Z"/>
      <path class="cls-5" d="M22.06,149.86c.04.2.85,1.21.18,1.83-.32.25-1.42-1.63-1.64-1.83h1.46Z"/>
      <g>
        <path class="cls-5" d="M276.4,123.91c3.44.62,6.72,1.4,10.23,1.83,2.63.32,3.52,1.72,4.2-1.46l.73,2.56,1.46-2.92v3.29c9.61,1.48,18.84,4.52,28.32,6.58,3.91.85,3,2.03,6.94,0l2.19.91-.91,1.64c2.34,1.25,5.25-.06,6.21,1.83v-3.29c1.18,2.75,1.68,6.1,2.56.73,1.02,6.67,2.07.97,2.56,1.1v2.92l.73-1.46c-.26,2.92,3.26,2.18,4.02,1.1.45.24-.36,2.87,1.83.37l-.73,2.19c1.85-.21,3.1,2.03,4.57.37-.22.7.32.67.37.73,2.49,3.35,4.56.97,7.13-.73-.05,1.44-4.14,2.93-1.1,3.29l1.46-1.83-.55,2.38c.52.69,1.59-.62,1.83-.91.01.4-.15,1.21.18,1.46,1.44.09,1.43-1.65,1.83.37,3.79-3.44.37,3.69,4.02,0l-.37,1.83,1.46-1.83.55,4.39c-.41-.16-.33,1.27-1.1.55l-.18-2.38-1.1,1.83c-.92-2.53-.76,1.64-1.83-1.1l-1.1,1.46c-.44-4.15-.72.85-1.83.37l.37-2.19c-2.67,4.54-1.99.98-2.56,1.1-.77.16-.97,2.34-1.83,0l-.73,1.1c-1.32.04.35-4.42-1.83,0,.45-4.99-.82-.6-1.1-.73-.23-2.76-.68.02-2.56.73l.37-2.92c-1.67,1.86-2.52,5.01-2.56.37-.75.74-.75,2.75-2.38,2.01l.55-2.74-1.46,3.29-.73-2.56-.73,2.19c-.88.7-1.72-3.25-2.19.37l-.37-2.56-1.46,2.56.37-2.56-1.46,2.19c-.63-1.97-.87-.23-2.19.73l-1.46-3.29-1.1,2.56c-.48-2.95-.59-.43-1.46,0s-.68-2.68-1.83.37c-.86-1.67-1.43-.21-1.1-2.92-.51-.13-1.46,5.49-2.19,1.46l-1.83,1.46.37-2.92-2.19,2.92.37-2.56-1.83,2.56c-.22-3.02-.97.2-1.46,0-.55-1.99-.76-1.65-1.46,0-.64-3.91-.89.33-1.83,0l.37-2.92c-3.59,7.63-1.57-3.26-3.29,2.56l-.73-1.46-1.1,1.83v-1.46c-2.86,3.25-1.03-.62-1.46-.73l-2.01,1.64,1.28-2.38-2.19,2.56-1.1-1.1-.73,1.1v-2.92l-1.46,3.29v-3.65c-.41,1.53-2.49,5.72-1.64,2.01-.71-.72-1.01,1.1-1.28.91-.55-.38.09-1.36,0-1.83l-1.1,2.56v-2.56c-2.56,5.05-.98-.55-4.02,2.56l-.73-1.46-.73,1.46-.55-.91-.91.91c.78-6.28-1.75,3.2-1.46-1.83l-2.19,1.83-.73-1.83-1.46,1.46.37-2.92-1.46,2.92c-1.06.14.22-3.22-2.56.37v-2.19l-1.1,1.83c-.46-2.26-.46.24-1.83.37l.73-3.65-2.19,3.65.73-3.29-2.19,2.92-.73-1.83-.73,2.19v-3.29c-.77,2.48-1.38,2.37-3.29,3.65v-2.92l-1.83,2.56.73-2.56-2.56,2.56v-2.19l-2.56,2.19.73-2.56-3.29,2.19v-1.83l-1.83,2.19.37-3.29-1.83,3.29-.37-2.92-1.46,2.92v-3.29l-1.1,2.56c-.83.37-.82-3.62-2.56.73l-.37-2.56-1.46,2.56c-.63-3.83-.31.14-2.74-.18l1.28-1.64-2.92,1.83c-.51-4.05-.19-1.17-1.83.37l.37-3.29c-1.3,3.66-2.8,1.86-4.75,2.92l-.37-2.56-.37,2.19-.55-1.28-.55,1.28-.37-1.46-1.46,1.83.73-3.29-2.19,3.29.55-2.38-2.38,2.38c.37-5.5-.99.3-1.83,0l.73-3.65c-1.05.86-1.12,3.32-2.19,4.02-.19.12-3.92-1.16-2.56-2.56l-1.46,2.19c-1.73-.21.3-3.6-1.83-.37-.66-3.75-.85-.21-1.46,0-.11.04-.55-.87-1.1-.73-1.04.27-1.44,2.66-1.46-1.1l-1.83,1.83.73-2.19-2.19,2.19c-1.3-4.48-2.11,3.38-2.19-2.56-.73,2.05-1.69,3.43-.91.18l-1.64,2.38v-2.92l-1.83,3.29-.73-2.56-.73,2.56-.37-1.83c-.53-.11-.92,3.05-1.46,0-2.97,4.64-1.83-2.27-4.39,1.83v-3.29l-1.46,3.65-.37-2.19c-4.22,5.5,1.32-4.57-4.02,1.83.37-4.01-1.04.44-1.83,0l.37-2.92-2.19,3.29.73-3.29-2.19,2.92c-.91-.29.24-1.7-.37-1.83-.42-.09-.71,1.78-1.28,1.64l.91-3.47-1.83,3.65-.73-2.19c-.77,1.92-.85,1.59-2.56,2.56l.37-2.19c-1.99,3.38-1.22-.49-3.29,2.19-.51-.16-1.7-2.27-1.83-2.19-.73.43.84,2.1-.73,2.19l-1.46-2.56-.37,2.56-1.83-3.65.73,3.29-1.83-2.92.18,2.38c-1.7-1.36-.4.17-1.28.55l-1.83-3.29.37,3.29-.73-2.19c-1.11,4.42-2.64-2.98-2.92,2.19l-1.46-2.56v2.56c-2.82-2.95-.73.47-2.56,0l-1.46-1.83c1.18,4.99-2.64-2.46-1.28,1.64l-1.64-.91v1.46c-1.22-1.01-1.44-3.08-1.83-.37h-.73l-1.1-2.92c-.42,6.22-1.25.38-1.83.73l-.37,1.83c-3.43-5.53.95,3.68-4.2-1.64l.18,2.01-1.46-2.19-.73,1.83-2.19-2.56,1.1,2.92-1.83-1.46c-.33,3.1-1.32.38-1.83.37-.24,0-.28,2.49-2.56-1.1.96,5.74-1.36-1.42-1.46,2.92-1.69-3.97-.92,2.11-3.65-2.56v1.83l-1.64-1.64.18,1.64-.73-2.56-.37,2.56-1.46-2.56.55,2.38c-1.64.26-1.47-2.93-2.01.18l-2.19-3.29.37,3.29c-1.17-1.89-1.32.5-2.56-2.19.37,3.39-2.09,1.21-4.02.37-.69,2.94-2.38,1.41-4.02-.37v2.19l-1.46-3.29v2.92l-2.19-2.92.37,3.29c-4.83-7.36.84,3.94-4.02-2.19v2.19l-2.19-2.92.37,2.92c-2.79-3.25-.9,2.21-2.92-1.83l-.73,1.83-.73-2.92-.18,2.74-1.28-1.28c-.33,2.34-1.14,2.34-1.46,0-1.33,3.13-1.57-.07-2.56-1.46l.37,3.29c-1.35-2.36-.99-.35-1.1-.37-1.08-.16-.86-1.03-1.1-1.1-.21-.06-.04.94-.73.73-.65-.2-1.71-1.49-1.83-1.46-.67.18,1.45,4.15-1.83-.73.18,1.58-1.25,1.12-2.19,2.92l-2.56-3.29v2.92l-1.83-3.65c-.28,2.88-.56,1.61-1.83,0l.37,3.65-1.46-2.56-.37,2.56-2.19-2.92v2.92c-1.15-2.97-1.21-.05-1.46,0-.15.03-.51-1.34-.73-1.46-.13-.07-1.24.87-2.19-1.1l1.28,2.38-2.38-1.64c-.3,4.51-2-1.14-2.56-1.1v3.29l-2.19-4.02v3.29l-1.46-2.19-.37,2.56-1.83-2.92c.66,3.04-.36,4.44-2.19,1.1-.02,3.46-1.42,1.64-1.83-.73l-.37,2.56-1.1-1.83-.37,1.83c-3-4.46-.44-.05-1.83,0l-2.92-2.19.91,2.01c-1.24.37-1.52-.27-2.38-.91l-.37,1.46-1.46-2.92.18,2.38c-3.06-1.68-.66.15-2.01.18-1.07.02-2.93-1.39-3.65-2.19v1.83l-1.46-2.19v2.92l-1.46-2.56c-.72,5.87-1.82-3.69-2.19,2.56l-1.1-3.65-.37,3.29-.73-2.92-.37,2.56-2.01-2.38c2,4.35-.59,3.29-2.01.18l.18,2.01c-2.23-.14-1.85-3.7-2.38.55l-1.1-2.92-.37,2.92c-.83-1.06-1.02-1.9-1.46,0-1.57-2.03-1.02,1.29-3.29-1.83l-.73,1.83c-1.68-1.02-2.29-3.33-2.56,0-2.28-3.4-1.29-.69-1.83-.37-.29.18-1.43-3.34-1.1.37-.43.09-.76-3.36-1.83-.37-1-2.34,1.84-2.75,2.01-2.92.22-.23.88-.51,1.1-.91l.55-2.38.18,2.38c1.56-.88.71-4.05,2.01-5.66l-.55,4.57c3.2.43,2.24-3.11,3.84-4.93l-.37,4.39,1.83-3.65c-1.72,3.91,3.55,1.79,5.48.73s-.64-1.47,1.64-1.46,8.3-.99,8.22-3.65l1.1,1.46.37-2.92c1-.8,1.01,4.56,1.83-.37l.73,1.83v-2.92c1.64,4.53,1.48,1.51,2.19,1.46.2-.01,2.29.73,3.65,0l1.83-1.83c.5,2.34,3.34-.16,4.2-.37,1.26-.31,1.46-.22,2.92-.73,3.07-1.08,3.11.73,4.57-3.65v2.92l1.46-2.56.37,2.19c2.64-.18,2.62-2.21,4.02-4.02l-.73,3.29c1.17-.78,7.47-1.25,8.04-1.83.36-.37-1.48-2.06,1.64-.91l-.91-1.64,2.56,1.46,2.92-4.39-.73,4.39,2.19-3.29-.55,2.74c1.61,1.37,1.85-.53,2.01-.55,2.41-.28,8.87-.31,10.78-2.01.89-.79-.95-2.48,2.19-.37l.55-3.84.37,3.65,1.1-4.02.37,4.02.73-2.19,1.28,1.64,1.64-3.11c.73.68-1,2.62-.91,2.74.25.36,8.23-.66,8.59-.91.37-.26-.03-2.32.73-2.92l.37,2.56c1.38-3.47.53-.67,1.1-.37,2.05,1.12,3.44-1.44,3.65-1.46.9-.1.38,1.14.73,1.1,3.71-.5,7.52-1.88,11.33-1.83l1.1-3.29.37,2.92,1.1-2.19c.95.54-.32,1.49.37,2.19.42.43,10.29-.97,12.06-1.1.09,0,1.15-1.07,1.46-1.1.81-.06.46.75.73.73,4.49-.36,9.16,0,13.34-1.28-.35-2.66-1.26-4.84,1.46-1.46l.55-4.2.18,4.2,2.74-3.11-.91,3.47,2.01-2.01-1.28,3.11,3.11-1.28c-2.58,2.65.51,1.44,2.74,1.28l-1.28-2.01c1.34.49,3.14,3.25,3.65,1.1.74,2.34,4.77.42,6.94,1.1l-1.1-5.48,2.56,3.29.73-2.19c1.75,6,2.91.45,5.48-1.46l-1.46,3.65,1.83-2.56c1.13.21-.43,1.89.37,2.56.47.39,1.27-1.59,2.01-.91l-2.38,3.11c2.33.38.18-1.67,3.29-2.19l-.91,2.01c1.68,0,16.07,1.17,16.63.55.52-.58-.28-1.98.73-2.56-.19,4.53,1.32,2.19,2.92,2.19.15,0,1.09,1.08,2.92.73.43-.08-.52-1.52,2.56.37l-.73-2.92,1.83,2.92.73-3.65,1.1,3.65.73-1.83,1.83,2.19c2.09-1.05,2.02.14,3.65.37,3.07.43,6.45-.19,9.5.73l.18-1.64.91,1.28.73-1.83c.14,2.11.25,2.9,2.56,1.83,3.15,2.1,8.86,1,12.79,2.19l1.1-2.19.37,2.19c4.15-7.01.56-.32,1.46.37,2.56-.98,2.04,1.6,4.39-1.83-2.47,3.82,4.15,2.81,6.76,3.29Z"/>
        <g>
          <path class="cls-2" d="M161.48,134.15c1.7-.39,2.14,2.26.73,2.56-1.27.27-2.29-2.2-.73-2.56Z"/>
          <path class="cls-2" d="M175,124.28c.51.02,1.52,1.75.37,2.19-1.54.59-1.71-2.26-.37-2.19Z"/>
          <path class="cls-2" d="M223.97,126.84c1.59.01.86,2.61-.37,2.19-1.01-.34-.57-2.2.37-2.19Z"/>
          <path class="cls-2" d="M171.34,136.34c1.13-.42,1.73,1.34,1.1,1.83-.98.75-2.55-1.29-1.1-1.83Z"/>
          <path class="cls-2" d="M311.3,133.41c1.13-.42,1.73,1.34,1.1,1.83-.98.75-2.55-1.29-1.1-1.83Z"/>
          <path class="cls-2" d="M229.81,142.18c1.18-.44,1.83,1.41.73,1.83-1.18.44-1.83-1.41-.73-1.83Z"/>
          <path class="cls-4" d="M191.08,146.2c1.76-.58,1.8,1.67.73,1.83-.8.11-1.86-1.45-.73-1.83Z"/>
          <path class="cls-2" d="M141.38,127.93c1.61-.71,1.89,1.7.73,1.83-1.01.11-1.5-1.49-.73-1.83Z"/>
          <path class="cls-2" d="M280.24,137.07c1.17-.86,2.01,1.58,1.1,1.83-1.25.34-1.68-1.4-1.1-1.83Z"/>
          <path class="cls-2" d="M43.81,145.47c1.29-.41,1.76,1.49.73,1.83s-1.7-1.52-.73-1.83Z"/>
          <path class="cls-2" d="M150.51,141.45c.68-.21,1.91,1.46.73,1.83-1.3.41-1.75-1.51-.73-1.83Z"/>
          <path class="cls-2" d="M86.93,142.55c.68-.21,1.91,1.46.73,1.83-1.3.41-1.75-1.51-.73-1.83Z"/>
          <path class="cls-2" d="M140.28,141.82c1.3-.41,1.75,1.51.73,1.83-.68.21-1.91-1.46-.73-1.83Z"/>
          <path class="cls-2" d="M255.39,139.63c.4-.16,1.15.15,1.28.55.76,2.29-3.68.38-1.28-.55Z"/>
          <path class="cls-2" d="M123.47,139.26c.84-.26,1.58,1.52.73,1.83-1.24.45-1.78-1.5-.73-1.83Z"/>
          <path class="cls-2" d="M325.19,145.47c1.54-.5,1.62,1.89.37,1.83-.38-.02-1.48-1.46-.37-1.83Z"/>
          <path class="cls-2" d="M305.09,140.36c.74-.01,1.45,1.41.37,1.83-1.59.62-1.33-1.81-.37-1.83Z"/>
          <path class="cls-2" d="M244.43,139.26c.34,0,1.5,1.46.37,1.83-1.69.55-1.24-1.83-.37-1.83Z"/>
          <path class="cls-2" d="M51.48,143.28c1.24-.92,1.85,1.6.73,1.83-.42.08-1.5-1.26-.73-1.83Z"/>
          <path class="cls-2" d="M232.37,133.78c1.59-.47,1.64,1.12.73,1.46-1.08.4-1.77-1.15-.73-1.46Z"/>
          <path class="cls-2" d="M246.99,123.18c1.69-.55,1.24,1.83.37,1.83-.34,0-1.5-1.46-.37-1.83Z"/>
          <path class="cls-2" d="M89.49,134.88c.87-.69,1.98,1.53.73,1.83-.84.2-1.27-1.39-.73-1.83Z"/>
          <path class="cls-2" d="M195.46,137.8c1.45-.33,1.7,1,1.1,1.46s-2.31-1.19-1.1-1.46Z"/>
          <path class="cls-2" d="M185.23,139.99c.92-.66,1.88.89,1.1,1.46-.92.66-1.88-.89-1.1-1.46Z"/>
          <path class="cls-2" d="M109.59,141.45c.92-.66,1.88.89,1.1,1.46-.92.66-1.88-.89-1.1-1.46Z"/>
          <path class="cls-2" d="M170.25,143.65c.9-.2,1.22,1.27.37,1.46-.9.2-1.22-1.27-.37-1.46Z"/>
          <path class="cls-2" d="M276.59,146.57c.87-.11.87,1.94,0,1.83-.71-.09-.71-1.73,0-1.83Z"/>
          <path class="cls-1" d="M268.55,139.99c.9-.2,1.22,1.27.37,1.46-.9.2-1.22-1.27-.37-1.46Z"/>
          <path class="cls-2" d="M137.72,147.3c.9-.2,1.22,1.27.37,1.46-.9.2-1.22-1.27-.37-1.46Z"/>
          <path class="cls-3" d="M257.59,123.55c.9-.2,1.22,1.27.37,1.46-.9.2-1.22-1.27-.37-1.46Z"/>
          <path class="cls-2" d="M278.41,130.13c1.32-.85,1.29,1.64.37,1.46-.41-.08-.85-1.15-.37-1.46Z"/>
          <path class="cls-4" d="M180.48,146.94c1.49-.25.93,1.35.37,1.46-.19.04-1.41-1.29-.37-1.46Z"/>
          <path class="cls-2" d="M207.52,129.39c.41.08.85,1.15.37,1.46-1.32.85-1.29-1.64-.37-1.46Z"/>
          <path class="cls-1" d="M211.18,122.09c.41.08.85,1.15.37,1.46-1.32.85-1.29-1.64-.37-1.46Z"/>
          <path class="cls-2" d="M218.48,142.18c1.32-.85,1.29,1.64.37,1.46-.41-.08-.85-1.15-.37-1.46Z"/>
          <path class="cls-1" d="M290.84,131.59c1.11-.09,1.05,1.39.37,1.46-.27.03-1.37-1.38-.37-1.46Z"/>
          <path class="cls-2" d="M315.69,143.65c.27-.03,1.37,1.38.37,1.46-1.11.09-1.05-1.39-.37-1.46Z"/>
          <path class="cls-2" d="M74.5,142.92c1.11-.09,1.05,1.39.37,1.46-.27.03-1.37-1.38-.37-1.46Z"/>
          <path class="cls-2" d="M62.44,145.11c.82-.45,1.3.78.73,1.1-.82.45-1.3-.78-.73-1.1Z"/>
          <path class="cls-3" d="M316.78,134.51c.35.02.88,1.18.37,1.46-.79.44-1.22-1.5-.37-1.46Z"/>
          <path class="cls-2" d="M124.57,127.93c.51-.07,1.23.58.73,1.1-1.15.3-1.56-.98-.73-1.1Z"/>
          <path class="cls-2" d="M158.92,123.91c.82-.45,1.3.78.73,1.1-.82.45-1.3-.78-.73-1.1Z"/>
          <path class="cls-1" d="M99.72,141.45c.63,0,.63,1.46,0,1.46s-.63-1.46,0-1.46Z"/>
          <path class="cls-2" d="M103.74,127.57c1.55-.87,1.15,1.16.37,1.1-.21-.02-.87-.81-.37-1.1Z"/>
          <path class="cls-2" d="M206.42,142.55c.86-.14,1.08.98.37,1.1-.86.14-1.08-.98-.37-1.1Z"/>
          <path class="cls-1" d="M180.11,137.8c1.21-.53.99,1.08.37,1.1-.19,0-.89-.87-.37-1.1Z"/>
          <path class="cls-1" d="M291.94,140.36c1.21-.53.99,1.08.37,1.1-.19,0-.89-.87-.37-1.1Z"/>
          <path class="cls-1" d="M261.6,133.78c.81.04.71.91.37,1.1-.71.37-1.12-1.14-.37-1.1Z"/>
          <path class="cls-3" d="M299.61,131.59c.71-.37,1.12,1.14.37,1.1-.81-.04-.71-.91-.37-1.1Z"/>
          <path class="cls-2" d="M186.69,145.84c.23.02.87.87.37,1.1-.78.35-1.06-1.16-.37-1.1Z"/>
          <path class="cls-1" d="M209.71,136.7c.86.11.23,1.64-.37.73-.24-.37.32-.74.37-.73Z"/>
          <path class="cls-3" d="M184.86,120.99c.74-.15.72.93.37,1.1-.14.07-.92-.99-.37-1.1Z"/>
          <path class="cls-1" d="M160.01,141.45c.55-.2.8.54.37.73-.54.24-.81-.57-.37-.73Z"/>
          <path class="cls-1" d="M333.96,141.09c.55-.2.8.54.37.73-.54.24-.81-.57-.37-.73Z"/>
          <path class="cls-4" d="M66.1,139.63c.55-.2.8.54.37.73-.54.24-.81-.57-.37-.73Z"/>
          <path class="cls-1" d="M152.34,135.61c.55-.2.8.54.37.73-.54.24-.81-.57-.37-.73Z"/>
          <path class="cls-1" d="M199.48,122.45c.55-.2.8.54.37.73-.54.24-.81-.57-.37-.73Z"/>
          <path class="cls-1" d="M219.21,134.15c.55-.2.8.54.37.73-.54.24-.81-.57-.37-.73Z"/>
          <path class="cls-4" d="M111.05,130.13c.55-.2.8.54.37.73-.54.24-.81-.57-.37-.73Z"/>
          <path class="cls-2" d="M234.56,127.57c.55-.2.8.54.37.73-.54.24-.81-.57-.37-.73Z"/>
          <path class="cls-2" d="M153.07,125.01c.55-.2.8.54.37.73-.54.24-.81-.57-.37-.73Z"/>
          <polygon class="cls-1" points="130.05 143.65 130.6 143.83 130.41 144.38 130.23 144.19 130.05 143.65"/>
          <polygon class="cls-1" points="132.61 126.11 133.16 126.29 132.61 126.84 132.42 126.65 132.61 126.11"/>
          <polygon class="cls-3" points="132.24 135.97 132.61 136.34 132.61 136.7 132.24 136.7 132.24 135.97"/>
          <polygon class="cls-2" points="143.2 135.61 143.39 136.16 142.84 136.34 142.66 136.16 143.2 135.61"/>
          <polygon class="cls-2" points="189.25 132.68 189.61 133.05 189.61 133.41 189.25 133.41 189.25 132.68"/>
          <polygon class="cls-1" points="207.16 121.36 207.34 121.9 206.79 122.09 206.61 121.9 207.16 121.36"/>
          <polygon class="cls-1" points="215.56 129.03 216.11 129.21 215.56 129.76 215.38 129.58 215.56 129.03"/>
          <polygon class="cls-1" points="256.85 128.3 257.22 128.66 257.22 129.03 256.85 129.03 256.85 128.3"/>
          <polygon class="cls-3" points="116.16 135.24 116.35 135.79 115.8 135.97 115.61 135.79 116.16 135.24"/>
        </g>
      </g>
    </g>
    <g>
      <g>
        <path class="cls-6" d="M341.82,128.66c.09.04.73-.61,2.01,0,1.4.67,5.54,5.44,7.49,6.4,1.15,1.81,1.47,5.46,0,7.13s-2.72-.58-4.57-.37l.73-2.19c-2.19,2.5-1.38-.12-1.83-.37-.76,1.08-4.28,1.83-4.02-1.1l-.73,1.46v-2.92c-.49-.12-1.53,5.57-2.56-1.1-.88,5.37-1.38,2.02-2.56-.73v3.29c-.96-1.88-3.87-.57-6.21-1.83l.91-1.64-2.19-.91c.11-.06,1.05-1.42,1.64-1.83.28-.2,1.45.25,2.01-.18.38-.3.85-4.67,3.47-5.3,2.82-.67,4.07,1.12,6.4,2.19Z"/>
        <path class="cls-6" d="M341.82,128.66c-2.33-1.08-3.58-2.86-6.4-2.19-2.62.62-3.09,5-3.47,5.3-.56.44-1.73-.01-2.01.18-.59.41-1.54,1.77-1.64,1.83-3.94,2.03-3.03.85-6.94,0-.62-1.55-1.58-3.05-2.56-4.39.3-1.88,1.58-5.44,3.47-6.21s4.6.17,5.12,0c.37-.12,0-1,.37-1.1,1.39-.38,2.09.04,2.19,0,.36-.13,1.18-1.4,1.46-1.46,1.86-.41,2.05,1.74,2.56,1.83.19.03,2.05-1.32,3.65-1.1,2.99.42,4.45,4.65,4.2,7.31Z"/>
      </g>
      <path class="cls-6" d="M372.15,150.22c-.16.47-.51,1.64-.91,1.83-1.25.35-1.12-.51-1.64-.73-.09-.04-.1-1.79-.73.37-.29-.04-.4-.24-.73-.37l-.55-4.39-1.46,1.83.37-1.83c-3.65,3.69-.23-3.44-4.02,0-.4-2.01-.39-.28-1.83-.37-.34-.26-.17-1.06-.18-1.46.44-.54,1.24-.62.55-1.83-.13.61-.56,1.25-.55,1.83-.23.29-1.3,1.6-1.83.91l.55-2.38-1.46,1.83c-3.05-.35,1.05-1.85,1.1-3.29-2.57,1.7-4.64,4.08-7.13.73,1-1.54,3.44.19,4.2,0,.72-.18,1.15-2.08,1.83-2.56.54-.38,1.67-.28,1.83-.37.12-.07.62-1.37,1.1-1.46s1.23.81,2.19.73c.21-.02,1.15-1.14,2.92-.73,2.86.66,2.31,4.57,2.56,4.75.22.16,2.38-.23,3.47,1.28.88,1.22.84,4.27.37,5.66Z"/>
      <path class="cls-5" d="M369.59,151.32c-.65,2.2-.63.38-.73.37.63-2.16.64-.4.73-.37Z"/>
      <path class="cls-5" d="M360.45,145.11c-.02-.57.42-1.22.55-1.83.69,1.2-.11,1.28-.55,1.83Z"/>
    </g>
  </g>
</svg>